<?xml version="1.0" encoding="iso-8859-1"?>
<!-- Generator: Adobe Illustrator 27.6.1, SVG Export Plug-In . SVG Version: 6.00 Build 0)  -->
<svg version="1.0" id="Layer_1" xmlns="http://www.w3.org/2000/svg" xmlns:xlink="http://www.w3.org/1999/xlink" x="0px" y="0px"
	 width="97.53px" height="28.34px" viewBox="0 0 97.53 28.34" enable-background="new 0 0 97.53 28.34" xml:space="preserve">
<g>
	<rect x="31.83" y="8.73" fill-rule="evenodd" clip-rule="evenodd" fill="#005496" width="3.72" height="11.54"/>
	<path fill-rule="evenodd" clip-rule="evenodd" fill="#005496" d="M37.27,13.1c0-0.33,0.02-0.74,0.36-1.07
		c0.49-0.49,1.37-0.49,1.91-0.49h3.03c1,0,2.04,0.07,2.93,0.77c0.97,0.77,1.09,1.83,1.09,2.59v5.37h-3.23v-4.43
		c0-0.61-0.05-1.11-0.36-1.5c-0.28-0.36-0.68-0.53-1.34-0.53h-0.58c-0.13,0-0.31,0.02-0.45,0.13c-0.16,0.15-0.15,0.33-0.15,0.49
		v5.84h-3.23V13.1z"/>
	<path fill-rule="evenodd" clip-rule="evenodd" fill="#005496" d="M52.53,20.27c-0.64,0-1.81,0-2.7-0.59
		c-0.72-0.49-1.1-1.35-1.1-2.14v-3.76h-1.24v-2.24h1.24v-2.8h3.23v2.8h2.49v2.24h-2.49v2c0,0.64,0.08,1.32,0.56,1.75
		c0.44,0.4,1.01,0.41,1.42,0.41h0.48v2.34H52.53z"/>
	<path fill-rule="evenodd" clip-rule="evenodd" fill="#005496" d="M65.83,15.21c0-0.84,0.07-2.06,1.04-2.85
		c0.96-0.79,2.37-0.82,3.23-0.82h2.14v2.27h-1.12c-0.63,0-1.22,0.08-1.63,0.63c-0.38,0.51-0.43,1.17-0.43,1.66v4.17h-3.23V15.21z"/>
	<path fill-rule="evenodd" clip-rule="evenodd" fill="#005496" d="M71,17.4h1.67c0.87,0,1.43-0.15,1.83-0.46
		c0.73-0.58,0.73-1.47,0.73-2.18V8.73h3.73v7.29c0,0.92-0.15,2.13-1.06,3.05c-0.53,0.53-1.52,1.2-3.12,1.2H71V17.4z"/>
	<path fill-rule="evenodd" clip-rule="evenodd" fill="#005496" d="M95.62,20.27c-0.64,0-1.81,0-2.7-0.59
		c-0.72-0.49-1.1-1.35-1.1-2.14v-3.76h-1.24v-2.24h1.24v-2.8h3.23v2.8h2.49v2.24h-2.49v2c0,0.64,0.08,1.32,0.56,1.75
		c0.44,0.4,1.01,0.41,1.42,0.41h0.48v2.34H95.62z"/>
	<path fill-rule="evenodd" clip-rule="evenodd" fill="#005496" d="M58.64,17.52c-0.1-0.16-0.14-0.27-0.18-0.61
		c-0.04-0.44-0.01-2.27-0.01-2.27c-0.01-0.34,0.09-0.68,0.38-0.84c0.23-0.13,0.74-0.15,1.12-0.15c0.16,0,0.59,0.02,0.86,0.06
		c0.48,0.1,0.6,0.36,0.6,0.59c0,0.16-0.07,0.46-0.53,0.46h-1.59v2.04h3.96c0.3,0,0.58-0.02,0.86-0.25c0.49-0.4,0.53-1.04,0.53-1.6
		c0-0.96-0.1-2.26-0.94-2.93c-0.69-0.56-1.85-0.59-3.61-0.59c-1.65,0-3.31,0.03-4.12,0.86c-0.79,0.81-0.71,2.11-0.71,3.71
		c0,1.58,0.06,2.51,0.45,3.13c0.69,1.14,1.8,1.14,3.1,1.14h5.52v-2.34h-4.24C59.51,17.93,58.92,17.96,58.64,17.52"/>
	<path fill-rule="evenodd" clip-rule="evenodd" fill="#005496" d="M83.77,17.52c-0.1-0.16-0.14-0.27-0.18-0.61
		c-0.04-0.44-0.01-2.27-0.01-2.27c-0.01-0.34,0.09-0.68,0.38-0.84c0.23-0.13,0.74-0.15,1.12-0.15c0.16,0,0.59,0.02,0.86,0.06
		c0.48,0.1,0.6,0.36,0.6,0.59c0,0.16-0.07,0.46-0.53,0.46h-1.59v2.04h3.96c0.3,0,0.58-0.02,0.86-0.25c0.49-0.4,0.53-1.04,0.53-1.6
		c0-0.96-0.1-2.26-0.94-2.93c-0.69-0.56-1.85-0.59-3.61-0.59c-1.65,0-3.31,0.03-4.12,0.86C80.3,13.1,80.39,14.4,80.39,16
		c0,1.58,0.07,2.51,0.45,3.13c0.69,1.14,1.8,1.14,3.1,1.14h5.52v-2.34h-4.24C84.64,17.93,84.04,17.96,83.77,17.52"/>
	<path fill-rule="evenodd" clip-rule="evenodd" fill="#50B848" d="M14.17,0C6.36,0,0,6.36,0,14.17c0,7.81,6.36,14.17,14.17,14.17
		c7.81,0,14.17-6.36,14.17-14.17C28.34,6.36,21.98,0,14.17,0 M14.17,26.21L14.17,26.21c-6.65,0-12.04-5.39-12.04-12.04
		c0-6.65,5.39-12.04,12.04-12.04c6.65,0,12.04,5.39,12.04,12.04C26.21,20.82,20.82,26.21,14.17,26.21"/>
	<path fill-rule="evenodd" clip-rule="evenodd" fill="#50B848" d="M10.13,4.4c-2.4,0.99-4.35,2.83-5.48,5.16h5.48V4.4z"/>
	<path fill-rule="evenodd" clip-rule="evenodd" fill="#50B848" d="M14.17,3.59c-0.53,0-1.05,0.05-1.55,0.12v5.85h1.55h0.29h4.32
		v4.61c0,2.55-1.9,4.61-4.25,4.61c-0.69,0-1.34-0.19-1.92-0.51v6.36c0.51,0.08,1.03,0.12,1.55,0.12c5.84,0,10.58-4.74,10.58-10.58
		S20.01,3.59,14.17,3.59"/>
	<path fill-rule="evenodd" clip-rule="evenodd" fill="#50B848" d="M3.81,12.05c-0.14,0.69-0.22,1.39-0.22,2.12
		c0,4.41,2.7,8.18,6.54,9.77V12.05H3.81z"/>
</g>
</svg>
